<svg xmlns="http://www.w3.org/2000/svg" width="393.612" height="393.612" viewBox="0 0 393.612 393.612">
  <g id="Group_1" data-name="Group 1" transform="translate(-297.194 -425.194)">
    <g id="Exclusion_1" data-name="Exclusion 1" transform="translate(494 515.934) rotate(45)">
      <path d="M 113.0004043579102 149.5003204345703 L 36.99990844726562 149.5003204345703 C 32.07226943969727 149.5003204345703 27.29226875305176 148.5353546142578 22.79266738891602 146.6321868896484 C 18.44632720947266 144.7938232421875 14.54282760620117 142.1619720458984 11.19056797027588 138.8097229003906 C 7.838367938995361 135.4575500488281 5.206527709960938 131.5540466308594 3.368127822875977 127.2076644897461 C 1.464987874031067 122.7080841064453 0.5000078678131104 117.9280700683594 0.5000078678131104 113.0004043579102 L 0.5000078678131104 36.99990844726562 C 0.5000078678131104 32.07226943969727 1.464987874031067 27.2922477722168 3.368127822875977 22.79266738891602 C 5.206487655639648 18.44634819030762 7.838327884674072 14.54282760620117 11.19056797027588 11.19056797027588 C 14.54282760620117 7.838327884674072 18.44634819030762 5.206487655639648 22.79266738891602 3.368127822875977 C 27.2922477722168 1.464987874031067 32.07226943969727 0.5000078678131104 36.99990844726562 0.5000078678131104 L 113.0004043579102 0.5000078678131104 C 117.9280700683594 0.5000078678131104 122.7080841064453 1.464987874031067 127.2076644897461 3.368127822875977 C 131.5540466308594 5.206527709960938 135.4575500488281 7.838367938995361 138.8097229003906 11.19056797027588 C 142.1619720458984 14.54282760620117 144.7938232421875 18.44632720947266 146.6321868896484 22.79266738891602 C 148.5353546142578 27.29226875305176 149.5003204345703 32.07226943969727 149.5003204345703 36.99990844726562 L 149.5003204345703 113.0004043579102 C 149.5003204345703 117.9280471801758 148.5353546142578 122.7080459594727 146.6321868896484 127.2076644897461 C 144.7937927246094 131.5540924072266 142.1619415283203 135.4575805664062 138.8097229003906 138.8097229003906 C 135.4575805664062 142.1619415283203 131.5540924072266 144.7937927246094 127.2076644897461 146.6321868896484 C 122.7080459594727 148.5353546142578 117.9280471801758 149.5003204345703 113.0004043579102 149.5003204345703 Z M 29.49970817565918 30.00010871887207 L 29.49970817565918 30.50010871887207 L 29.49970817565918 120.5001068115234 L 29.49970817565918 121.0001068115234 L 29.99970817565918 121.0001068115234 L 119.9997100830078 121.0001068115234 L 120.4997100830078 121.0001068115234 L 120.4997100830078 120.5001068115234 L 120.4996871948242 30.50010871887207 L 120.4996871948242 30.00010871887207 L 119.9996871948242 30.00010871887207 L 29.99970817565918 30.00010871887207 L 29.49970817565918 30.00010871887207 Z" stroke="none"/>
      <path d="M 113.0004043579102 149.0003204345703 C 117.8607711791992 149.0003204345703 122.5752487182617 148.0486297607422 127.0128860473633 146.1716918945312 C 131.2997131347656 144.3585052490234 135.1497802734375 141.7626342773438 138.4561920166016 138.4561614990234 C 141.7626342773438 135.1497802734375 144.3585052490234 131.2997131347656 146.1716918945312 127.0129089355469 C 148.0486297607422 122.5752487182617 149.0003204345703 117.8607711791992 149.0003204345703 113.0004043579102 L 149.0003204345703 36.99990844726562 C 149.0003204345703 32.13954925537109 148.0486297607422 27.42506790161133 146.1716918945312 22.98744773864746 C 144.3585205078125 18.70070838928223 141.7626647949219 14.85060787200928 138.4561920166016 11.54410743713379 C 135.1497497558594 8.237688064575195 131.2996673583984 5.641828060150146 127.0129089355469 3.828627824783325 C 122.5752716064453 1.951687812805176 117.8607864379883 1.00000786781311 113.0004043579102 1.00000786781311 L 36.99990844726562 1.00000786781311 C 32.13954925537109 1.00000786781311 27.42506790161133 1.951687812805176 22.98744773864746 3.828627824783325 C 18.70072746276855 5.641767978668213 14.85062789916992 8.237648010253906 11.54412746429443 11.54410743713379 C 8.237648010253906 14.85062789916992 5.641767978668213 18.70072746276855 3.828627824783325 22.98742866516113 C 1.951687812805176 27.42506790161133 1.00000786781311 32.13954925537109 1.00000786781311 36.99990844726562 L 1.00000786781311 113.0004043579102 C 1.00000786781311 117.8607864379883 1.951687812805176 122.5752716064453 3.828627824783325 127.0128860473633 C 5.641828060150146 131.2996673583984 8.237688064575195 135.1497497558594 11.54410743713379 138.4561920166016 C 14.85060787200928 141.7626647949219 18.70070838928223 144.3585205078125 22.98744773864746 146.1716918945312 C 27.42506790161133 148.0486297607422 32.13954925537109 149.0003204345703 36.99990844726562 149.0003204345703 L 113.0004043579102 149.0003204345703 M 28.99970817565918 29.50010871887207 L 120.9996871948242 29.50010871887207 L 120.9997100830078 121.5001068115234 L 28.99970817565918 121.5001068115234 L 28.99970817565918 29.50010871887207 M 113.0004043579102 150.0003204345703 L 36.99990844726562 150.0003204345703 C 32.00496673583984 150.0003204345703 27.15942764282227 149.0220489501953 22.59788703918457 147.0926818847656 C 18.19192695617676 145.2291107177734 14.23500823974609 142.5612640380859 10.83700752258301 139.1632843017578 C 7.439047813415527 135.7653350830078 4.771227836608887 131.8084106445312 2.907627820968628 127.4024505615234 C 0.9782878756523132 122.8409271240234 7.846680091461167e-06 117.9953842163086 7.846680091461167e-06 113.0004043579102 L 7.846680091461167e-06 36.99990844726562 C 7.846680091461167e-06 32.00494766235352 0.9782878756523132 27.15940856933594 2.907627820968628 22.59788703918457 C 4.771187782287598 18.19196701049805 7.439027786254883 14.23502826690674 10.83700752258301 10.83700752258301 C 14.23502826690674 7.439027786254883 18.19196701049805 4.771187782287598 22.59788703918457 2.907627820968628 C 27.15940856933594 0.9782878756523132 32.00494766235352 7.846680091461167e-06 36.99990844726562 7.846680091461167e-06 L 113.0004043579102 7.846680091461167e-06 C 117.9953842163086 7.846680091461167e-06 122.8409271240234 0.9782878756523132 127.4024505615234 2.907627820968628 C 131.8084106445312 4.771227836608887 135.7653350830078 7.439047813415527 139.1632843017578 10.83700752258301 C 142.5612640380859 14.23500823974609 145.2291107177734 18.19192695617676 147.0926818847656 22.59788703918457 C 149.0220489501953 27.15942764282227 150.0003204345703 32.00496673583984 150.0003204345703 36.99990844726562 L 150.0003204345703 113.0004043579102 C 150.0003204345703 117.9953460693359 149.0220489501953 122.8408889770508 147.0926818847656 127.4024505615234 C 145.2290954589844 131.8084716796875 142.5612487792969 135.765380859375 139.1632843017578 139.1632843017578 C 135.765380859375 142.5612487792969 131.8084716796875 145.2290954589844 127.4024505615234 147.0926818847656 C 122.8408889770508 149.0220489501953 117.9953460693359 150.0003204345703 113.0004043579102 150.0003204345703 Z M 29.99970817565918 30.50010871887207 L 29.99970817565918 120.5001068115234 L 119.9997100830078 120.5001068115234 L 119.9996871948242 30.50010871887207 L 29.99970817565918 30.50010871887207 Z" stroke="none" fill="#707070"/>
    </g>
    <path id="Subtraction_3" data-name="Subtraction 3" d="M196.807,391.613a36.889,36.889,0,0,1-26.163-10.838L85.1,295.232l41.72-41.719L196.1,322.791l10.59-10.59,42.427,42.426L222.97,380.775a36.889,36.889,0,0,1-26.163,10.838Zm91.908-76.582h0L246.288,272.6l77.09-77.089-16-16,43.133-43.133,32.26,32.26a36.969,36.969,0,0,1,0,52.326l-94.06,94.061ZM41.167,251.485h0l-.677-.677.093-.093L10.838,220.969a36.969,36.969,0,0,1,0-52.326L105.5,73.985l42.427,42.426-79.1,79.1L82.98,209.672l-.094.094-.678-.678L40.583,250.714l.677.677-.093.093ZM262.834,134.97,196.1,68.234,184.693,79.641,142.267,37.214,170.644,8.837a36.969,36.969,0,0,1,52.326,0l83,83-43.134,43.133h0Z" transform="translate(297.194 427.194)"/>
  </g>
</svg>
